<?xml version="1.0" encoding="UTF-8"?>
<svg width="512pt" height="512pt" version="1.1" viewBox="0 0 512 512" xmlns="http://www.w3.org/2000/svg">
 <path d="m480 416c0 4.2422-1.6875 8.3125-4.6875 11.312s-7.0703 4.6875-11.312 4.6875h-416c-5.7148 0-11-3.0508-13.855-8-2.8594-4.9492-2.8594-11.051 0-16 2.8555-4.9492 8.1406-8 13.855-8h416c4.2422 0 8.3125 1.6875 11.312 4.6875s4.6875 7.0703 4.6875 11.312zm-432-304h416c5.7148 0 11-3.0508 13.855-8 2.8594-4.9492 2.8594-11.051 0-16-2.8555-4.9492-8.1406-8-13.855-8h-416c-5.7148 0-11 3.0508-13.855 8-2.8594 4.9492-2.8594 11.051 0 16 2.8555 4.9492 8.1406 8 13.855 8zm416 128h-416c-5.7148 0-11 3.0508-13.855 8-2.8594 4.9492-2.8594 11.051 0 16 2.8555 4.9492 8.1406 8 13.855 8h416c5.7148 0 11-3.0508 13.855-8 2.8594-4.9492 2.8594-11.051 0-16-2.8555-4.9492-8.1406-8-13.855-8z"/>
</svg>
