<?xml version="1.0" encoding="UTF-8"?>
<svg width="512pt" height="512pt" version="1.1" viewBox="0 0 512 512" xmlns="http://www.w3.org/2000/svg">
 <g fill="#142321">
  <path d="m341.11 224.02c-6.4961 0-11.762 5.2812-11.762 11.762v190.94c0 6.4961 5.2812 11.762 11.762 11.762s11.762-5.2812 11.762-11.762l-0.003907-190.93c0-6.4961-5.2617-11.777-11.758-11.777z"/>
  <path d="m170.83 224.02c-6.4961 0-11.777 5.2812-11.777 11.762v190.94c0 6.4961 5.2812 11.762 11.777 11.762 6.4961 0 11.762-5.2812 11.762-11.762v-190.93c0-6.4961-5.2656-11.777-11.762-11.777z"/>
  <path d="m255.97 224.02c-6.4961 0-11.762 5.2812-11.762 11.762v190.94c0 6.4961 5.2812 11.762 11.762 11.762s11.777-5.2812 11.777-11.762l-0.003906-190.93c-0.015626-6.4961-5.293-11.777-11.773-11.777z"/>
  <path d="m106.46 187.71v232.93c0 29.871 24.305 54.16 54.16 54.16h190.67c29.871 0 54.16-24.305 54.16-54.16v-232.93zm86.543 239.01c0 12.223-9.9531 22.176-22.176 22.176-12.223 0-22.176-9.9531-22.176-22.176v-190.93c0-12.223 9.9531-22.176 22.176-22.176 12.223 0 22.176 9.9531 22.176 22.176zm85.137 0c0 12.223-9.9531 22.176-22.176 22.176s-22.176-9.9531-22.176-22.176v-190.93c0-12.223 9.9531-22.176 22.176-22.176s22.176 9.9531 22.176 22.176zm85.137 0c0 12.223-9.9531 22.176-22.176 22.176-12.223 0-22.176-9.9531-22.176-22.176v-190.93c0-12.223 9.9531-22.176 22.176-22.176 12.223 0 22.176 9.9531 22.176 22.176z"/>
  <path d="m182.64 85.441c0-26.609 21.648-48.238 48.238-48.238h50.238c26.512 0 48.078 21.633 48.078 48.238v18.961h-28l0.003907-18.961c0-11.07-9.0078-20.078-20.078-20.078h-50.238c-11.07 0-20.078 9.0078-20.078 20.078v18.961h-28.16z"/>
  <path d="m427.65 167.15c0 5.6016-4.5586 10.16-10.145 10.16h-323.07c-5.6016 0-10.145-4.5586-10.145-10.16v-16.48c0-19.777 16.078-35.855 35.855-35.855h271.65c19.777 0 35.855 16.078 35.855 35.855z"/>
 </g>
</svg>
