<?xml version="1.0" encoding="UTF-8"?>
<svg width="100pt" height="100pt" version="1.1" viewBox="0 0 100 100" xmlns="http://www.w3.org/2000/svg">
 <g fill="#f36e20">
  <path d="m79 49.59c-1.1016 0-2 0.89844-2 2v24.191c0 2.8398-2.3086 5.1484-5.1484 5.1484h-48.383c-2.8398 0-5.1484-2.3086-5.1484-5.1484v-48.383c0-2.8398 2.3086-5.1484 5.1484-5.1484h24.191c1.1016 0 2-0.89844 2-2s-0.89844-2-2-2h-24.191c-5.0391 0-9.1484 4.1016-9.1484 9.1484v48.379c0 5.0391 4.1016 9.1484 9.1484 9.1484h48.379c5.0391 0 9.1484-4.1016 9.1484-9.1484l0.003906-24.188c0-1.1094-0.89062-2-2-2z"/>
  <path d="m48.09 63.879-11.219-11.219-2.1016 8.1289 5.1914 5.1914z"/>
  <path d="m38.371 49.914 25.426-25.426 12.465 12.465-25.426 25.426z"/>
  <path d="m74.699 17.98c-1.2188-1.2188-3.1914-1.2188-4.3984 0l-4.3789 4.3789 12.469 12.469 4.3789-4.3789c1.2188-1.2188 1.2188-3.1914 0-4.3984z"/>
  <path d="m32.969 67.781 3.6211-0.92969-2.6914-2.6914z"/>
 </g>
</svg>
