<?xml version="1.0" encoding="UTF-8"?>
<svg id="Layer_2" data-name="Layer 2" xmlns="http://www.w3.org/2000/svg" viewBox="0 0 513.43 297.54">
  <defs>
    <style>
      .cls-1 {
        stroke-width: 0px;
      }

      .cls-1, .cls-2 {
        fill: #fff;
      }

      .cls-2 {
        font-family: OfeliaText-Bold, 'Ofelia Text';
        font-size: 60px;
        font-weight: 700;
      }
    </style>
  </defs>
  <g id="Layer_1-2" data-name="Layer 1">
    <g>
      <g>
        <path class="cls-1" d="m203.43,34.02c0-5.16-4.19-9.35-9.35-9.35s-9.35,4.19-9.35,9.35,4.19,9.35,9.35,9.35,9.35-4.19,9.35-9.35Zm-15.98,0c0-3.66,2.97-6.63,6.63-6.63s6.63,2.97,6.63,6.63-2.97,6.63-6.63,6.63-6.63-2.97-6.63-6.63Z"/>
        <circle class="cls-1" cx="194.08" cy="34.02" r="4.85" transform="translate(1.75 76.86) rotate(-22.5)"/>
        <path class="cls-1" d="m219.72,8.09v54.09c18.1-10.37,36.99-27.05,36.99-27.05,0,0-18.89-16.67-36.99-27.05Z"/>
        <path class="cls-1" d="m361.06,131.67l-3.49-2.37-22.28,32.89-1.47-.97,22.2-32.78-18.64-12.62-22.33,32.97-118.5-78.55c.31,0,.63.02.94.02,4.99,0,11.33-2.33,18-5.78V5.78c-6.05-3.13-11.83-5.33-16.58-5.72v-.07h-44v4.22h25.9c-1.46.79-2.86,1.68-4.19,2.67h-31.7v4.22h26.88c-13.08,13.68-15.16,42.38-15.72,94.31-.08,1.93-.09,3.86-.06,5.79,0,.95-.02,1.91-.02,2.88h.12c1.44,30.66,16.97,60.25,44.52,78.51,45.91,30.43,107.79,17.89,138.23-28.02l-.07-.04,22.25-32.86ZM193.22,21.49c6.92,0,12.54,5.61,12.54,12.54s-5.61,12.54-12.54,12.54-21.13-12.54-21.13-12.54c0,0,14.21-12.54,21.13-12.54Zm19.82,150.29c-32.83-21.92-41.68-66.3-19.76-99.13l118.89,79.38c-21.92,32.83-66.3,41.68-99.13,19.76Z"/>
        <path class="cls-1" d="m265.63,145.47h0s17.97,12.05,17.97,12.05c7.33,4.92,17.26,2.96,22.18-4.37l-17.97-12.05c-7.33-4.92-17.26-2.96-22.18,4.37Z"/>
        <path class="cls-1" d="m241.28,152.58h0s17.97,12.05,17.97,12.05c7.33,4.92,17.26,2.96,22.18-4.37h0s-17.97-12.05-17.97-12.05c-7.33-4.92-17.26-2.96-22.18,4.37Z"/>
        <path class="cls-1" d="m275.13,132.14h0l-17.97-12.05c-7.33-4.92-17.26-2.96-22.18,4.37h0s17.97,12.05,17.97,12.05c7.33,4.92,17.26,2.96,22.18-4.37Z"/>
      </g>
      <text class="cls-2" transform="translate(42.25 162.8) rotate(50.85) scale(.94 1)"><tspan x="0" y="0">W</tspan></text>
      <text class="cls-2" transform="translate(88.41 215.71) rotate(40.39) scale(.94 1)"><tspan x="0" y="0">I</tspan></text>
      <text class="cls-2" transform="translate(107.54 232.12) rotate(33.75) scale(.94 1)"><tspan x="0" y="0">L</tspan></text>
      <text class="cls-2" transform="translate(137.74 252.64) rotate(23.61) scale(.94 1)"><tspan x="0" y="0">D</tspan></text>
      <text class="cls-2" transform="translate(186.58 272.93) rotate(12.23) scale(.94 1)"><tspan x="0" y="0">E</tspan></text>
      <text class="cls-2" transform="translate(229.23 281.92) rotate(1.31) scale(.94 1)"><tspan x="0" y="0">R</tspan></text>
      <text class="cls-2" transform="translate(279.19 283.66) rotate(-12.94) scale(.94 1)"><tspan x="0" y="0">W</tspan></text>
      <text class="cls-2" transform="translate(341.71 268.1) rotate(-25.42) scale(.94 1)"><tspan x="0" y="0">A</tspan></text>
      <text class="cls-2" transform="translate(379.7 249.71) rotate(-33.99) scale(.94 1)"><tspan x="0" y="0">T</tspan></text>
      <text class="cls-2" transform="translate(408.87 230.04) rotate(-42.16) scale(.94 1)"><tspan x="0" y="0">C</tspan></text>
      <text class="cls-2" transform="translate(440.35 201.69) rotate(-52.58) scale(.94 1)"><tspan x="0" y="0">H</tspan></text>
    </g>
  </g>
</svg>