<?xml version="1.0" encoding="UTF-8"?>
<svg id="Layer_2" data-name="Layer 2" xmlns="http://www.w3.org/2000/svg" viewBox="0 0 149.38 94.33">
  <defs>
    <style>
      .cls-1 {
        fill: #889884;
        stroke-width: 0px;
      }
    </style>
  </defs>
  <g id="Layer_1-2" data-name="Layer 1">
    <g>
      <polygon class="cls-1" points="58.73 9.7 59.39 13.12 102.66 4.85 147.48 4.85 147.48 0 0 0 0 4.85 84.13 4.85 58.73 9.7"/>
      <polygon class="cls-1" points="140.58 69.98 142.28 66.94 130.96 60.61 145.28 57.38 144.51 53.99 126.42 58.08 105.83 46.57 147.72 46.57 147.72 41.72 .25 41.72 .25 46.57 98.71 46.57 140.58 69.98"/>
      <polygon class="cls-1" points="38.36 89.48 25.29 81.93 23.55 84.94 31.41 89.48 1.9 89.48 1.9 94.33 149.38 94.33 149.38 89.48 38.36 89.48"/>
    </g>
  </g>
</svg>